# xmcd CD database file
#
# Track frame offsets:
#	183
#	10938
#	24518
#	36525
#	48275
#	59758
#	69600
#	83893
#	93600
#	105490
#	117450
#	128843
#
# Disc length: 1855 seconds
#
# Revision: 0
# Processed by: cddbd v1.5.1PL0 Copyright (c) Steve Scherf et al.
# Submitted via: CDex 1.51
#
DISCID=a7073d0c
DTITLE=Beatles, The - Big Artist Hit Collection-The Beatles Vol. 5
DYEAR=9999
DGENRE=Rock
TTITLE0=Paperback Writer
TTITLE1=I'm Only Sleeping
TTITLE2=Taxman
TTITLE3=Yellow Submarine
TTITLE4=I Want to Tell You
TTITLE5=Good Day Sunshine
TTITLE6=Ticket to Ride
TTITLE7=Another Girl
TTITLE8=You Like Me Too Much
TTITLE9=Tell Me What You See
TTITLE10=I Need You
TTITLE11=You're Gonna Lose That Girl
EXTD=YEAR: 9999
EXTT0=
EXTT1=
EXTT2=
EXTT3=
EXTT4=
EXTT5=
EXTT6=
EXTT7=
EXTT8=
EXTT9=
EXTT10=
EXTT11=
PLAYORDER=
